<?xml version="1.0" encoding="UTF-8" standalone="no"?>
<!DOCTYPE svg PUBLIC "-//W3C//DTD SVG 1.1//EN"
 "http://www.w3.org/Graphics/SVG/1.1/DTD/svg11.dtd">
<!-- Generated by graphviz version 2.40.1 (20161225.0304)
 -->
<!-- Title: state transitions Pages: 1 -->
<svg width="448pt" height="774pt"
 viewBox="0.00 0.00 448.00 774.00" xmlns="http://www.w3.org/2000/svg" xmlns:xlink="http://www.w3.org/1999/xlink">
<g id="graph0" class="graph" transform="scale(1 1) rotate(0) translate(4 770)">
<title>state transitions</title>
<polygon fill="#ffffff" stroke="transparent" points="-4,4 -4,-770 444,-770 444,4 -4,4"/>
<g id="clust1" class="cluster state regular">
<title>cluster_current_state</title>
<path fill="none" stroke="#000000" stroke-width="2" d="M20,-8C20,-8 420,-8 420,-8 426,-8 432,-14 432,-20 432,-20 432,-746 432,-746 432,-752 426,-758 420,-758 420,-758 20,-758 20,-758 14,-758 8,-752 8,-746 8,-746 8,-20 8,-20 8,-14 14,-8 20,-8"/>
<text text-anchor="start" x="184.9906" y="-739.2" font-family="Helvetica,sans-Serif" font-size="12.00" fill="#000000">current_state</text>
</g>
<!-- current_state -->
<!-- idle -->
<g id="node2" class="node state regular">
<title>idle</title>
<polygon fill="#ffffff" fill-opacity="0.003922" stroke="transparent" stroke-width="2" points="272,-720 216,-720 216,-684 272,-684 272,-720"/>
<text text-anchor="start" x="234.6664" y="-698.2" font-family="Helvetica,sans-Serif" font-size="12.00" fill="#000000">idle</text>
<path fill="none" stroke="#000000" stroke-width="2" d="M228.3333,-685C228.3333,-685 259.6667,-685 259.6667,-685 265.3333,-685 271,-690.6667 271,-696.3333 271,-696.3333 271,-707.6667 271,-707.6667 271,-713.3333 265.3333,-719 259.6667,-719 259.6667,-719 228.3333,-719 228.3333,-719 222.6667,-719 217,-713.3333 217,-707.6667 217,-707.6667 217,-696.3333 217,-696.3333 217,-690.6667 222.6667,-685 228.3333,-685"/>
</g>
<!-- wait1 -->
<g id="node3" class="node state regular">
<title>wait1</title>
<polygon fill="#ffffff" fill-opacity="0.003922" stroke="transparent" stroke-width="2" points="272,-638 216,-638 216,-602 272,-602 272,-638"/>
<text text-anchor="start" x="229.999" y="-616.2" font-family="Helvetica,sans-Serif" font-size="12.00" fill="#000000">wait1</text>
<path fill="none" stroke="#000000" stroke-width="2" d="M228.3333,-603C228.3333,-603 259.6667,-603 259.6667,-603 265.3333,-603 271,-608.6667 271,-614.3333 271,-614.3333 271,-625.6667 271,-625.6667 271,-631.3333 265.3333,-637 259.6667,-637 259.6667,-637 228.3333,-637 228.3333,-637 222.6667,-637 217,-631.3333 217,-625.6667 217,-625.6667 217,-614.3333 217,-614.3333 217,-608.6667 222.6667,-603 228.3333,-603"/>
</g>
<!-- idle&#45;&gt;wait1 -->
<g id="edge1" class="edge transition">
<title>idle&#45;&gt;wait1</title>
<path fill="none" stroke="#000000" d="M244,-683.8015C244,-673.3976 244,-660.1215 244,-648.3768"/>
<polygon fill="#000000" stroke="#000000" points="247.5001,-648.1476 244,-638.1476 240.5001,-648.1476 247.5001,-648.1476"/>
<text text-anchor="middle" x="245.3895" y="-658" font-family="Helvetica,sans-Serif" font-size="10.00" fill="#000000"> </text>
</g>
<!-- led -->
<g id="node4" class="node state regular">
<title>led</title>
<polygon fill="#ffffff" fill-opacity="0.003922" stroke="transparent" stroke-width="2" points="103,-556 47,-556 47,-520 103,-520 103,-556"/>
<text text-anchor="start" x="66.9978" y="-534.2" font-family="Helvetica,sans-Serif" font-size="12.00" fill="#000000">led</text>
<path fill="none" stroke="#000000" stroke-width="2" d="M59.3333,-521C59.3333,-521 90.6667,-521 90.6667,-521 96.3333,-521 102,-526.6667 102,-532.3333 102,-532.3333 102,-543.6667 102,-543.6667 102,-549.3333 96.3333,-555 90.6667,-555 90.6667,-555 59.3333,-555 59.3333,-555 53.6667,-555 48,-549.3333 48,-543.6667 48,-543.6667 48,-532.3333 48,-532.3333 48,-526.6667 53.6667,-521 59.3333,-521"/>
</g>
<!-- wait1&#45;&gt;led -->
<g id="edge2" class="edge transition">
<title>wait1&#45;&gt;led</title>
<path fill="none" stroke="#000000" d="M215.7132,-606.275C187.3563,-592.5161 143.542,-571.2571 112.3435,-556.1194"/>
<polygon fill="#000000" stroke="#000000" points="113.6221,-552.8495 103.0974,-551.633 110.5664,-559.1474 113.6221,-552.8495"/>
<text text-anchor="middle" x="171.3895" y="-576" font-family="Helvetica,sans-Serif" font-size="10.00" fill="#000000"> </text>
</g>
<!-- led&#45;&gt;idle -->
<g id="edge3" class="edge transition">
<title>led&#45;&gt;idle</title>
<path fill="none" stroke="#000000" d="M54.4922,-556.1048C49.2188,-562.6503 45,-570.5327 45,-579 45,-661 45,-661 45,-661 45,-677.2301 147.8539,-691.3148 205.6731,-697.9502"/>
<polygon fill="#000000" stroke="#000000" points="205.5817,-701.4619 215.9102,-699.1013 206.364,-694.5057 205.5817,-701.4619"/>
<text text-anchor="start" x="45" y="-617" font-family="Helvetica,sans-Serif" font-size="10.00" fill="#000000">to_integer(unsigned(doutb)) = 0 &#160;&#160;</text>
</g>
<!-- addr_out -->
<g id="node8" class="node state regular">
<title>addr_out</title>
<polygon fill="#ffffff" fill-opacity="0.003922" stroke="transparent" stroke-width="2" points="109.5,-474 40.5,-474 40.5,-438 109.5,-438 109.5,-474"/>
<text text-anchor="start" x="51.8228" y="-452.2" font-family="Helvetica,sans-Serif" font-size="12.00" fill="#000000">addr_out</text>
<path fill="none" stroke="#000000" stroke-width="2" d="M52.8333,-439C52.8333,-439 97.1667,-439 97.1667,-439 102.8333,-439 108.5,-444.6667 108.5,-450.3333 108.5,-450.3333 108.5,-461.6667 108.5,-461.6667 108.5,-467.3333 102.8333,-473 97.1667,-473 97.1667,-473 52.8333,-473 52.8333,-473 47.1667,-473 41.5,-467.3333 41.5,-461.6667 41.5,-461.6667 41.5,-450.3333 41.5,-450.3333 41.5,-444.6667 47.1667,-439 52.8333,-439"/>
</g>
<!-- led&#45;&gt;addr_out -->
<g id="edge4" class="edge transition">
<title>led&#45;&gt;addr_out</title>
<path fill="none" stroke="#000000" d="M75,-519.8015C75,-509.3976 75,-496.1215 75,-484.3768"/>
<polygon fill="#000000" stroke="#000000" points="78.5001,-484.1476 75,-474.1476 71.5001,-484.1476 78.5001,-484.1476"/>
<text text-anchor="start" x="75" y="-494" font-family="Helvetica,sans-Serif" font-size="10.00" fill="#000000">not (to_integer(unsigned(doutb)) = 0) &#160;&#160;</text>
</g>
<!-- count -->
<g id="node5" class="node state regular">
<title>count</title>
<polygon fill="#ffffff" fill-opacity="0.003922" stroke="transparent" stroke-width="2" points="204,-146 148,-146 148,-110 204,-110 204,-146"/>
<text text-anchor="start" x="161.3264" y="-124.2" font-family="Helvetica,sans-Serif" font-size="12.00" fill="#000000">count</text>
<path fill="none" stroke="#000000" stroke-width="2" d="M160.3333,-111C160.3333,-111 191.6667,-111 191.6667,-111 197.3333,-111 203,-116.6667 203,-122.3333 203,-122.3333 203,-133.6667 203,-133.6667 203,-139.3333 197.3333,-145 191.6667,-145 191.6667,-145 160.3333,-145 160.3333,-145 154.6667,-145 149,-139.3333 149,-133.6667 149,-133.6667 149,-122.3333 149,-122.3333 149,-116.6667 154.6667,-111 160.3333,-111"/>
</g>
<!-- done_addr -->
<g id="node6" class="node state regular">
<title>done_addr</title>
<polygon fill="#ffffff" fill-opacity="0.003922" stroke="transparent" stroke-width="2" points="102.5,-52 23.5,-52 23.5,-16 102.5,-16 102.5,-52"/>
<text text-anchor="start" x="34.8194" y="-30.2" font-family="Helvetica,sans-Serif" font-size="12.00" fill="#000000">done_addr</text>
<path fill="none" stroke="#000000" stroke-width="2" d="M35.8333,-17C35.8333,-17 90.1667,-17 90.1667,-17 95.8333,-17 101.5,-22.6667 101.5,-28.3333 101.5,-28.3333 101.5,-39.6667 101.5,-39.6667 101.5,-45.3333 95.8333,-51 90.1667,-51 90.1667,-51 35.8333,-51 35.8333,-51 30.1667,-51 24.5,-45.3333 24.5,-39.6667 24.5,-39.6667 24.5,-28.3333 24.5,-28.3333 24.5,-22.6667 30.1667,-17 35.8333,-17"/>
</g>
<!-- count&#45;&gt;done_addr -->
<g id="edge6" class="edge transition">
<title>count&#45;&gt;done_addr</title>
<path fill="none" stroke="#000000" d="M147.6911,-117.4495C134.2338,-111.5618 118.4606,-103.3194 106.25,-93 95.4577,-83.8792 85.8771,-71.5424 78.4935,-60.5077"/>
<polygon fill="#000000" stroke="#000000" points="81.4013,-58.5583 73.0617,-52.0236 75.506,-62.3326 81.4013,-58.5583"/>
<text text-anchor="start" x="106" y="-84" font-family="Helvetica,sans-Serif" font-size="10.00" fill="#000000">pix_cnt = (numb_pixels&#45;1) &#160;&#160;</text>
<text text-anchor="start" x="106" y="-72" font-family="Helvetica,sans-Serif" font-size="10.00" fill="#000000">not (led_cnt = (led_numb&#45;1)) &#160;&#160;</text>
</g>
<!-- wait_done -->
<g id="node7" class="node state regular">
<title>wait_done</title>
<polygon fill="#ffffff" fill-opacity="0.003922" stroke="transparent" stroke-width="2" points="268,-228 192,-228 192,-192 268,-192 268,-228"/>
<text text-anchor="start" x="202.6574" y="-206.2" font-family="Helvetica,sans-Serif" font-size="12.00" fill="#000000">wait_done</text>
<path fill="none" stroke="#000000" stroke-width="2" d="M204.3333,-193C204.3333,-193 255.6667,-193 255.6667,-193 261.3333,-193 267,-198.6667 267,-204.3333 267,-204.3333 267,-215.6667 267,-215.6667 267,-221.3333 261.3333,-227 255.6667,-227 255.6667,-227 204.3333,-227 204.3333,-227 198.6667,-227 193,-221.3333 193,-215.6667 193,-215.6667 193,-204.3333 193,-204.3333 193,-198.6667 198.6667,-193 204.3333,-193"/>
</g>
<!-- count&#45;&gt;wait_done -->
<g id="edge7" class="edge transition">
<title>count&#45;&gt;wait_done</title>
<path fill="none" stroke="#000000" d="M200.3494,-146.2171C205.7561,-151.1794 211.047,-156.889 215,-163 218.6635,-168.6635 221.4925,-175.2901 223.6538,-181.7515"/>
<polygon fill="#000000" stroke="#000000" points="220.3674,-182.9845 226.5244,-191.6067 227.0881,-181.0268 220.3674,-182.9845"/>
<text text-anchor="start" x="221" y="-166" font-family="Helvetica,sans-Serif" font-size="10.00" fill="#000000">not (pix_cnt = (numb_pixels&#45;1)) &#160;&#160;</text>
</g>
<!-- reset -->
<g id="node11" class="node state regular">
<title>reset</title>
<polygon fill="#ffffff" fill-opacity="0.003922" stroke="transparent" stroke-width="2" points="360,-52 304,-52 304,-16 360,-16 360,-52"/>
<text text-anchor="start" x="318.6644" y="-30.2" font-family="Helvetica,sans-Serif" font-size="12.00" fill="#000000">reset</text>
<path fill="none" stroke="#000000" stroke-width="2" d="M316.3333,-17C316.3333,-17 347.6667,-17 347.6667,-17 353.3333,-17 359,-22.6667 359,-28.3333 359,-28.3333 359,-39.6667 359,-39.6667 359,-45.3333 353.3333,-51 347.6667,-51 347.6667,-51 316.3333,-51 316.3333,-51 310.6667,-51 305,-45.3333 305,-39.6667 305,-39.6667 305,-28.3333 305,-28.3333 305,-22.6667 310.6667,-17 316.3333,-17"/>
</g>
<!-- count&#45;&gt;reset -->
<g id="edge5" class="edge transition">
<title>count&#45;&gt;reset</title>
<path fill="none" stroke="#000000" d="M204.256,-113.749C216.0591,-107.6078 229.8306,-100.1947 242,-93 260.4549,-82.0892 280.4482,-69.1055 296.8927,-58.0993"/>
<polygon fill="#000000" stroke="#000000" points="299.2921,-60.7032 305.6311,-52.2139 295.3817,-54.8972 299.2921,-60.7032"/>
<text text-anchor="start" x="279" y="-84" font-family="Helvetica,sans-Serif" font-size="10.00" fill="#000000">led_cnt = (led_numb&#45;1) &#160;&#160;</text>
<text text-anchor="start" x="279" y="-72" font-family="Helvetica,sans-Serif" font-size="10.00" fill="#000000">pix_cnt = (numb_pixels&#45;1) &#160;&#160;</text>
</g>
<!-- done_addr&#45;&gt;addr_out -->
<g id="edge8" class="edge transition">
<title>done_addr&#45;&gt;addr_out</title>
<path fill="none" stroke="#000000" d="M32.8306,-52.143C24.1601,-59.7201 17,-69.4683 17,-81 17,-154.5 17,-154.5 17,-154.5 17,-204.7085 38,-215.2915 38,-265.5 38,-415 38,-415 38,-415 38,-420.3753 39.7745,-425.3625 42.5462,-429.8739"/>
<polygon fill="#000000" stroke="#000000" points="39.9632,-432.251 48.9011,-437.94 45.4617,-427.9189 39.9632,-432.251"/>
<text text-anchor="start" x="37" y="-248" font-family="Helvetica,sans-Serif" font-size="10.00" fill="#000000">shift_dne(shift_dne&#39;high&#45;1) = &#39;1&#39; &#160;&#160;</text>
</g>
<!-- wait_done&#45;&gt;count -->
<g id="edge9" class="edge transition">
<title>wait_done&#45;&gt;count</title>
<path fill="none" stroke="#000000" d="M191.7721,-207.4729C147.465,-203.6542 78.4667,-194.6551 62.494,-175 39.7396,-146.9998 96.62,-135.4818 137.8261,-130.8896"/>
<polygon fill="#000000" stroke="#000000" points="138.3115,-134.3584 147.9065,-129.8655 137.6039,-127.3942 138.3115,-134.3584"/>
<text text-anchor="start" x="62" y="-166" font-family="Helvetica,sans-Serif" font-size="10.00" fill="#000000">shift_dne(shift_dne&#39;high&#45;1) = &#39;1&#39; &#160;&#160;</text>
</g>
<!-- wait2 -->
<g id="node9" class="node state regular">
<title>wait2</title>
<polygon fill="#ffffff" fill-opacity="0.003922" stroke="transparent" stroke-width="2" points="216,-392 160,-392 160,-356 216,-356 216,-392"/>
<text text-anchor="start" x="173.999" y="-370.2" font-family="Helvetica,sans-Serif" font-size="12.00" fill="#000000">wait2</text>
<path fill="none" stroke="#000000" stroke-width="2" d="M172.3333,-357C172.3333,-357 203.6667,-357 203.6667,-357 209.3333,-357 215,-362.6667 215,-368.3333 215,-368.3333 215,-379.6667 215,-379.6667 215,-385.3333 209.3333,-391 203.6667,-391 203.6667,-391 172.3333,-391 172.3333,-391 166.6667,-391 161,-385.3333 161,-379.6667 161,-379.6667 161,-368.3333 161,-368.3333 161,-362.6667 166.6667,-357 172.3333,-357"/>
</g>
<!-- addr_out&#45;&gt;wait2 -->
<g id="edge10" class="edge transition">
<title>addr_out&#45;&gt;wait2</title>
<path fill="none" stroke="#000000" d="M100.0784,-437.8015C116.171,-426.1237 137.2504,-410.8272 154.7348,-398.1393"/>
<polygon fill="#000000" stroke="#000000" points="156.9538,-400.8536 162.9917,-392.1476 152.8425,-395.1881 156.9538,-400.8536"/>
<text text-anchor="middle" x="140.3895" y="-412" font-family="Helvetica,sans-Serif" font-size="10.00" fill="#000000"> </text>
</g>
<!-- grab -->
<g id="node10" class="node state regular">
<title>grab</title>
<polygon fill="#ffffff" fill-opacity="0.003922" stroke="transparent" stroke-width="2" points="237,-310 181,-310 181,-274 237,-274 237,-310"/>
<text text-anchor="start" x="196.9964" y="-288.2" font-family="Helvetica,sans-Serif" font-size="12.00" fill="#000000">grab</text>
<path fill="none" stroke="#000000" stroke-width="2" d="M193.3333,-275C193.3333,-275 224.6667,-275 224.6667,-275 230.3333,-275 236,-280.6667 236,-286.3333 236,-286.3333 236,-297.6667 236,-297.6667 236,-303.3333 230.3333,-309 224.6667,-309 224.6667,-309 193.3333,-309 193.3333,-309 187.6667,-309 182,-303.3333 182,-297.6667 182,-297.6667 182,-286.3333 182,-286.3333 182,-280.6667 187.6667,-275 193.3333,-275"/>
</g>
<!-- wait2&#45;&gt;grab -->
<g id="edge11" class="edge transition">
<title>wait2&#45;&gt;grab</title>
<path fill="none" stroke="#000000" d="M192.6606,-355.8015C195.3522,-345.2915 198.7944,-331.8503 201.8247,-320.0177"/>
<polygon fill="#000000" stroke="#000000" points="205.262,-320.7033 204.3524,-310.1476 198.4809,-318.9666 205.262,-320.7033"/>
<text text-anchor="middle" x="200.3895" y="-330" font-family="Helvetica,sans-Serif" font-size="10.00" fill="#000000"> </text>
</g>
<!-- grab&#45;&gt;wait_done -->
<g id="edge12" class="edge transition">
<title>grab&#45;&gt;wait_done</title>
<path fill="none" stroke="#000000" d="M213.6606,-273.8015C216.3522,-263.2915 219.7944,-249.8503 222.8247,-238.0177"/>
<polygon fill="#000000" stroke="#000000" points="226.262,-238.7033 225.3524,-228.1476 219.4809,-236.9666 226.262,-238.7033"/>
<text text-anchor="middle" x="221.3895" y="-248" font-family="Helvetica,sans-Serif" font-size="10.00" fill="#000000"> </text>
</g>
<!-- reset&#45;&gt;idle -->
<g id="edge13" class="edge transition">
<title>reset&#45;&gt;idle</title>
<path fill="none" stroke="#000000" d="M360.2941,-36.7863C387.0074,-41.1631 423,-52.372 423,-81 423,-154.5 423,-154.5 423,-154.5 423,-267.4311 295,-261.0689 295,-374 295,-661 295,-661 295,-661 295,-671.1393 288.8012,-679.1922 280.7258,-685.381"/>
<polygon fill="#000000" stroke="#000000" points="278.6453,-682.5594 272.185,-690.9567 282.4719,-688.4209 278.6453,-682.5594"/>
<text text-anchor="start" x="295" y="-371" font-family="Helvetica,sans-Serif" font-size="10.00" fill="#000000">rst_cnt = (reset_duration&#45;1) &#160;&#160;</text>
</g>
</g>
</svg>
